<?xml version="1.0" standalone="no"?>
<!DOCTYPE svg PUBLIC "-//W3C//DTD SVG 20010904//EN"
 "http://www.w3.org/TR/2001/REC-SVG-20010904/DTD/svg10.dtd">
<svg version="1.0" xmlns="http://www.w3.org/2000/svg"
 width="540.000000pt" height="540.000000pt" viewBox="0 0 540.000000 540.000000"
 preserveAspectRatio="xMidYMid meet">
<metadata>
Created by potrace 1.10, written by Peter Selinger 2001-2011
</metadata>
<g transform="translate(0.000000,540.000000) scale(0.100000,-0.100000)"
fill="#ffffff" stroke="none">
<path d="M2630 4838 c-41 -4 -130 -10 -196 -15 -68 -5 -128 -14 -136 -21 -8
-6 -32 -14 -52 -17 -21 -2 -44 -9 -51 -15 -8 -6 -39 -14 -70 -17 -30 -3 -58
-10 -61 -14 -3 -5 -16 -9 -29 -9 -13 0 -30 -7 -39 -15 -8 -8 -29 -18 -46 -21
-17 -4 -33 -11 -36 -15 -3 -5 -14 -9 -24 -9 -11 0 -45 -13 -75 -30 -30 -16
-66 -30 -78 -30 -12 0 -30 -8 -39 -17 -31 -33 -99 -73 -124 -73 -8 0 -17 -7
-20 -15 -4 -9 -25 -24 -48 -34 -22 -11 -52 -31 -65 -45 -14 -14 -30 -26 -37
-26 -8 0 -28 -15 -46 -32 -48 -47 -130 -113 -150 -121 -10 -3 -18 -11 -18 -17
0 -14 -20 -34 -42 -43 -10 -3 -18 -12 -18 -18 0 -6 -18 -29 -40 -50 -22 -22
-40 -42 -40 -45 0 -4 -17 -26 -38 -48 -60 -67 -82 -96 -82 -105 0 -4 -9 -19
-20 -32 -36 -44 -56 -74 -70 -107 -6 -13 -21 -38 -35 -56 -14 -18 -28 -47 -31
-64 -4 -18 -10 -32 -15 -32 -4 0 -11 -10 -15 -22 -4 -13 -10 -25 -13 -28 -4
-3 -18 -36 -30 -75 -13 -38 -30 -79 -37 -90 -8 -11 -14 -29 -14 -42 0 -12 -4
-25 -10 -28 -5 -3 -10 -19 -10 -35 0 -16 -9 -52 -20 -80 -11 -28 -20 -60 -20
-71 0 -11 -6 -30 -14 -42 -37 -59 -37 -825 0 -884 8 -12 14 -33 14 -45 0 -13
7 -35 14 -50 8 -16 18 -49 22 -75 3 -27 10 -52 14 -58 4 -5 10 -27 14 -47 4
-21 11 -38 16 -38 5 0 12 -16 16 -35 3 -19 10 -38 15 -41 5 -3 9 -16 9 -29 0
-13 6 -30 13 -37 16 -16 47 -77 47 -93 0 -7 13 -30 29 -52 16 -22 32 -49 35
-61 4 -12 12 -22 17 -22 5 0 9 -5 9 -12 0 -15 62 -106 120 -178 25 -31 56 -71
70 -89 37 -49 178 -191 226 -227 44 -34 81 -65 122 -101 14 -13 30 -23 37 -23
7 0 24 -11 38 -24 14 -13 48 -35 74 -48 52 -25 64 -33 93 -62 10 -10 25 -16
33 -13 7 3 38 -10 68 -29 30 -18 62 -34 72 -34 9 0 25 -4 35 -9 56 -29 111
-51 125 -51 9 0 18 -4 21 -9 3 -4 29 -11 57 -14 28 -4 56 -10 63 -15 6 -5 29
-13 51 -17 22 -4 43 -11 46 -17 4 -6 51 -12 106 -13 55 -2 120 -9 144 -16 70
-19 386 -16 484 5 50 11 98 15 130 11 39 -4 58 -1 87 15 21 11 49 20 62 20 14
0 27 4 31 9 3 5 30 13 60 16 31 4 58 11 61 16 3 5 16 9 29 9 13 0 30 7 39 15
8 8 29 18 46 21 17 4 33 11 36 15 3 5 16 9 29 9 13 0 27 5 30 10 8 12 84 50
101 50 7 0 19 6 26 12 30 28 78 58 93 58 8 0 15 5 15 10 0 6 6 10 13 10 6 1
28 14 47 30 19 17 39 30 45 30 6 0 24 14 40 30 16 17 35 30 43 30 7 0 86 73
174 163 197 200 208 211 208 226 0 6 16 27 35 45 19 19 35 39 35 44 0 6 16 34
36 63 20 30 41 66 46 82 6 15 13 27 17 27 4 0 18 21 30 48 12 26 29 60 37 75
37 67 44 83 44 99 0 9 4 19 9 22 5 3 12 22 15 41 4 19 11 35 16 35 4 0 12 15
15 32 4 18 11 38 15 43 4 6 10 35 14 65 4 30 11 59 16 65 5 6 11 28 13 48 2
20 10 44 18 53 8 10 12 38 11 81 -2 36 5 127 14 201 14 123 15 149 1 291 -9
86 -15 179 -14 208 0 31 -5 58 -13 68 -8 10 -16 33 -17 52 -1 19 -7 40 -12 47
-6 7 -14 35 -17 62 -4 27 -10 54 -14 59 -4 6 -11 25 -15 44 -4 19 -14 41 -21
49 -8 7 -14 22 -14 32 0 10 -4 21 -9 24 -4 3 -11 24 -15 46 -3 22 -11 40 -16
40 -5 0 -12 11 -16 25 -3 14 -10 25 -15 25 -5 0 -9 14 -9 30 0 17 -6 33 -13
36 -7 2 -24 26 -37 52 -14 26 -28 49 -32 50 -5 2 -8 12 -8 22 0 11 -6 23 -13
27 -8 4 -22 24 -33 43 -10 19 -34 52 -51 73 -18 20 -33 41 -33 45 0 5 -23 33
-50 63 -28 30 -61 67 -73 82 -34 43 -109 118 -157 157 -24 19 -61 52 -82 73
-21 20 -43 37 -49 37 -6 0 -24 13 -42 30 -18 16 -38 30 -44 30 -7 0 -13 5 -13
10 0 6 -5 10 -11 10 -5 0 -27 13 -47 29 -20 16 -47 32 -59 36 -13 3 -23 11
-23 16 0 5 -6 9 -13 9 -8 0 -24 9 -37 20 -13 11 -29 20 -36 20 -14 0 -76 31
-84 42 -3 4 -28 14 -55 23 -45 15 -113 43 -157 66 -10 5 -30 9 -45 9 -16 0
-41 7 -56 15 -15 8 -45 17 -65 21 -20 4 -40 12 -44 18 -4 5 -55 14 -115 17
-59 4 -139 10 -178 14 -121 10 -148 10 -225 3z m-245 -67 c8 -14 -7 -20 -38
-14 -21 4 -25 8 -15 14 17 12 45 11 53 0z m724 0 c10 -6 10 -10 1 -16 -15 -10
-62 3 -55 15 8 12 35 13 54 1z m-1059 -91 c0 -5 -9 -10 -21 -10 -11 0 -17 5
-14 10 3 6 13 10 21 10 8 0 14 -4 14 -10z m-306 -119 c3 -5 -1 -12 -10 -15
-22 -9 -24 -8 -24 9 0 16 25 21 34 6z m997 -518 c28 -5 30 -7 14 -14 -26 -10
-113 -11 -156 -2 -33 7 -33 7 -9 14 33 9 110 11 151 2z m161 -74 c40 -6 86
-17 101 -25 16 -8 36 -14 46 -14 9 0 25 -6 36 -14 11 -7 37 -16 58 -19 20 -3
44 -13 53 -21 8 -9 21 -16 28 -16 8 0 19 -7 26 -15 7 -8 21 -15 30 -15 20 0
163 -93 198 -128 12 -12 26 -22 30 -22 12 0 172 -162 172 -174 0 -6 16 -26 34
-44 19 -18 42 -50 52 -70 9 -20 23 -41 30 -45 8 -4 14 -15 14 -22 0 -8 5 -15
10 -15 6 0 10 -7 10 -15 0 -17 39 -95 57 -113 7 -7 13 -26 13 -42 0 -16 4 -31
9 -34 4 -3 11 -24 15 -46 3 -22 10 -40 15 -40 22 0 36 -132 36 -355 -1 -231
-8 -304 -39 -360 -9 -16 -16 -38 -16 -47 0 -9 -4 -20 -10 -23 -5 -3 -10 -15
-10 -25 0 -21 -37 -97 -57 -118 -7 -7 -13 -20 -13 -28 0 -13 -25 -60 -40 -74
-9 -8 -30 -44 -40 -67 -5 -13 -14 -23 -19 -23 -5 0 -13 -9 -16 -20 -9 -27
-223 -241 -261 -260 -16 -8 -42 -27 -57 -42 -16 -16 -35 -28 -44 -28 -8 0 -26
-9 -40 -20 -14 -11 -31 -20 -38 -20 -7 0 -15 -7 -19 -15 -3 -8 -15 -15 -26
-15 -11 0 -28 -4 -38 -9 -106 -52 -165 -71 -218 -71 -21 0 -52 -8 -69 -17 -25
-14 -60 -17 -216 -18 -135 0 -190 3 -201 12 -8 7 -37 15 -64 19 -83 9 -135 26
-236 75 -10 5 -26 9 -37 9 -10 0 -24 7 -31 15 -7 8 -18 15 -25 15 -6 0 -20 9
-30 20 -10 11 -26 20 -36 20 -10 0 -31 14 -47 30 -17 17 -35 30 -41 30 -46 0
-371 360 -371 410 0 6 -4 10 -10 10 -5 0 -10 11 -10 24 0 13 -6 29 -14 35 -20
17 -56 88 -56 111 0 10 -4 21 -9 24 -5 3 -12 18 -15 33 -4 16 -13 42 -21 58
-55 119 -53 647 3 762 5 10 16 33 25 51 9 19 17 40 17 49 0 16 24 64 53 102 9
13 17 30 17 37 0 16 90 154 101 154 4 0 18 17 30 38 33 54 136 158 185 187 23
13 44 31 48 40 3 8 12 15 21 15 8 0 15 4 15 9 0 5 10 13 22 17 12 3 28 12 35
18 34 31 44 36 61 36 10 0 29 9 42 20 13 11 29 20 37 20 7 0 13 4 13 10 0 5
16 12 37 16 20 4 48 13 62 20 14 8 36 14 48 14 12 0 23 4 25 9 2 5 32 15 68
24 79 18 395 22 502 6z m-811 -92 c-5 -5 -18 -7 -28 -3 -14 6 -15 9 -4 16 19
11 46 1 32 -13z m-586 -577 c-5 -8 -11 -8 -17 -2 -6 6 -7 16 -3 22 5 8 11 8
17 2 6 -6 7 -16 3 -22z m-880 -249 c-4 -17 -11 -29 -16 -25 -10 6 -12 57 -2
68 14 13 25 -13 18 -43z m734 -239 c-1 -26 -4 -58 -8 -72 -8 -25 -8 -25 -15 7
-9 38 2 125 15 117 5 -3 9 -26 8 -52z m2685 -221 c-4 -35 -10 -58 -14 -51 -10
17 -13 201 -3 237 11 42 24 -104 17 -186z m-2685 -21 c1 -61 -14 -84 -22 -33
-9 52 -9 108 0 117 11 10 21 -30 22 -84z m-735 -293 c-6 -30 -7 -31 -17 -10
-5 12 -6 34 -2 50 6 24 8 26 16 10 6 -10 7 -32 3 -50z m2826 -717 c0 -5 -7
-10 -15 -10 -8 0 -15 5 -15 10 0 6 7 10 15 10 8 0 15 -4 15 -10z m-2258 -375
c0 -5 -5 -11 -11 -13 -6 -2 -11 4 -11 13 0 9 5 15 11 13 6 -2 11 -8 11 -13z
m1575 -602 c-11 -11 -148 -14 -166 -3 -11 6 14 9 78 10 52 0 91 -3 88 -7z"/>
</g>
</svg>
